HIERARCHY
ROOT Hips
{
	OFFSET 0.000000 0.000000 0.000000
	CHANNELS 6 Xposition Yposition Zposition Zrotation Yrotation Xrotation 
	JOINT LHipJoint
	{
		OFFSET 0.000000 0.000000 0.000000
		CHANNELS 3 Zrotation Yrotation Xrotation
		JOINT LeftUpLeg
		{
			OFFSET 1.363060 -1.794630 0.839290
			CHANNELS 3 Zrotation Yrotation Xrotation
			JOINT LeftLeg
			{
				OFFSET 2.448110 -6.726130 0.000000
				CHANNELS 3 Zrotation Yrotation Xrotation
				JOINT LeftFoot
				{
					OFFSET 2.562200 -7.039590 0.000000
					CHANNELS 3 Zrotation Yrotation Xrotation
					JOINT LeftToeBase
					{
						OFFSET 0.157640 -0.433110 2.322550
						CHANNELS 3 Zrotation Yrotation Xrotation
						End Site
						{
							OFFSET 0.000000 0.000000 0.000000
						}
					}
				}
			}
		}
	}
	JOINT RHipJoint
	{
		OFFSET 0.000000 0.000000 0.000000
		CHANNELS 3 Zrotation Yrotation Xrotation
		JOINT RightUpLeg
		{
			OFFSET -1.305520 -1.794630 0.839290
			CHANNELS 3 Zrotation Yrotation Xrotation
			JOINT RightLeg
			{
				OFFSET -2.542530 -6.985550 0.000000
				CHANNELS 3 Zrotation Yrotation Xrotation
				JOINT RightFoot
				{
					OFFSET -2.568260 -7.056230 0.000000
					CHANNELS 3 Zrotation Yrotation Xrotation
					JOINT RightToeBase
					{
						OFFSET -0.164730 -0.452590 2.363150
						CHANNELS 3 Zrotation Yrotation Xrotation
						End Site
						{
							OFFSET 0.000000 0.000000 0.000000
						}
					}
				}
			}
		}
	}
	JOINT LowerBack
	{
		OFFSET 0.000000 0.000000 0.000000
		CHANNELS 3 Zrotation Yrotation Xrotation
		JOINT Spine
		{
			OFFSET 0.028270 2.035590 -0.193380
			CHANNELS 3 Zrotation Yrotation Xrotation
			JOINT Spine1
			{
				OFFSET 0.056720 2.048850 -0.042750
				CHANNELS 3 Zrotation Yrotation Xrotation
				JOINT Neck
				{
					OFFSET 0.000000 0.000000 0.000000
					CHANNELS 3 Zrotation Yrotation Xrotation
					JOINT Neck1
					{
						OFFSET -0.054170 1.746240 0.172020
						CHANNELS 3 Zrotation Yrotation Xrotation
						JOINT Head
						{
							OFFSET 0.104070 1.761360 -0.123970
							CHANNELS 3 Zrotation Yrotation Xrotation
							End Site
							{
								OFFSET 0.000000 0.000000 0.000000
							}
						}
					}
				}
				JOINT LeftShoulder
				{
					OFFSET 0.000000 0.000000 0.000000
					CHANNELS 3 Zrotation Yrotation Xrotation
					JOINT LeftArm
					{
						OFFSET 3.362410 1.200890 -0.311210
						CHANNELS 3 Zrotation Yrotation Xrotation
						JOINT LeftForeArm
						{
							OFFSET 4.983000 -0.000000 -0.000000
							CHANNELS 3 Zrotation Yrotation Xrotation
							JOINT LeftHand
							{
								OFFSET 3.483560 -0.000000 -0.000000
								CHANNELS 3 Zrotation Yrotation Xrotation
								JOINT LeftFingerBase
								{
									OFFSET 0.000000 0.000000 0.000000
									CHANNELS 3 Zrotation Yrotation Xrotation
									JOINT LeftHandIndex1
									{
										OFFSET 0.715260 -0.000000 -0.000000
										CHANNELS 3 Zrotation Yrotation Xrotation
										End Site
										{
											OFFSET 0.000000 0.000000 0.000000
										}
									}
								}
								JOINT LThumb
								{
									OFFSET 0.000000 0.000000 0.000000
									CHANNELS 3 Zrotation Yrotation Xrotation
									End Site
									{
										OFFSET 0.000000 0.000000 0.000000
									}
								}
							}
						}
					}
				}
				JOINT RightShoulder
				{
					OFFSET 0.000000 0.000000 0.000000
					CHANNELS 3 Zrotation Yrotation Xrotation
					JOINT RightArm
					{
						OFFSET -3.136600 1.374050 -0.404650
						CHANNELS 3 Zrotation Yrotation Xrotation
						JOINT RightForeArm
						{
							OFFSET -5.241900 -0.000000 -0.000000
							CHANNELS 3 Zrotation Yrotation Xrotation
							JOINT RightHand
							{
								OFFSET -3.444170 -0.000000 -0.000000
								CHANNELS 3 Zrotation Yrotation Xrotation
								JOINT RightFingerBase
								{
									OFFSET 0.000000 0.000000 0.000000
									CHANNELS 3 Zrotation Yrotation Xrotation
									JOINT RightHandIndex1
									{
										OFFSET -0.622530 -0.000000 -0.000000
										CHANNELS 3 Zrotation Yrotation Xrotation
										End Site
										{
											OFFSET 0.000000 0.000000 0.000000
										}
									}
								}
								JOINT RThumb
								{
									OFFSET 0.000000 0.000000 0.000000
									CHANNELS 3 Zrotation Yrotation Xrotation
									End Site
									{
										OFFSET 0.000000 0.000000 0.000000
									}
								}
							}
						}
					}
				}
			}
		}
	}
}
MOTION
Frames: 11
Frame Time: 0.008333
-31.696042 16.654364 -4.560100 174.996884 59.068343 -171.810495 3.509605 0.663555 -1.083726 -30.784397 -8.369422 -23.662719 3.224782 13.612157 38.352538 0.870401 3.421436 -20.661362 0.581800 -4.884300 -13.578800 -7.333611 -1.202180 -0.758325 18.265910 12.837017 -28.970272 -13.942828 -20.131332 71.778937 -0.897036 0.684285 -16.006577 -0.149900 2.494900 -6.875400 1.034472 -2.545134 14.569791 1.838364 -2.421095 -1.652994 5.532221 -1.441395 0.685046 -0.289711 -2.355868 -12.255942 7.025125 -3.212151 0.209840 1.240000 -1.350000 0.747800 -7.515258 -7.262263 1.960737 -57.208080 13.866604 73.812558 37.403176 -44.112858 -17.314593 -1.153613 -1.856682 -22.089777 31.723037 19.971454 13.381500 -7.125000 0.000000 0.000000 5.234400 54.700700 1.249900 10.515002 7.242403 1.701587 54.697337 5.658981 48.522156 -37.794328 43.502365 -16.736700 0.260778 -0.140207 -11.139766 -21.451248 4.073085 -1.694800 7.125000 0.000000 0.000000 3.738500 -25.386600 1.778300 
-31.507196 16.628442 -4.648797 174.379966 58.297007 -172.157733 3.488233 0.696011 -1.098811 -31.134037 -8.424286 -22.809188 3.183204 13.526431 38.154242 0.966622 3.036869 -20.906146 0.579500 -4.874500 -13.551000 -7.317907 -1.184916 -0.597979 16.901183 14.375438 -31.430504 -13.881443 -20.268558 71.657651 -1.044029 0.948431 -17.287464 -0.167300 2.635100 -7.264500 1.252811 -2.940465 14.502358 1.898139 -2.889577 -1.670718 5.492542 -1.693043 0.678981 -0.207769 -2.224725 -12.415814 7.016582 -3.041812 0.120661 1.168300 -1.272500 0.731500 -7.474902 -7.412770 1.904023 -59.451168 11.395654 72.448491 36.444440 -43.330435 -16.479447 -1.221749 -1.764872 -22.190925 31.983601 20.015013 13.467000 -7.125000 0.000000 0.000000 5.565000 54.655500 1.323100 10.523674 7.342645 1.701134 55.501455 4.062355 46.435748 -35.651664 42.262657 -15.378872 0.312389 -0.170703 -10.834137 -21.813606 4.084886 -1.751100 7.125000 0.000000 0.000000 3.430400 -25.317700 1.636700 
-31.315123 16.602104 -4.738536 173.712584 57.584299 -172.572069 3.463979 0.733129 -1.108266 -31.521584 -8.469284 -21.882336 3.129077 13.419867 37.897403 1.051590 2.722595 -21.158058 0.571700 -4.842400 -13.459500 -7.284332 -1.171088 -0.459031 15.405400 15.816068 -33.826233 -13.727338 -20.361793 71.259449 -1.175896 1.171679 -18.382647 -0.177000 2.710100 -7.472700 1.400029 -3.307585 14.454643 1.954012 -3.327450 -1.684363 5.490417 -1.931337 0.684371 -0.148242 -2.098432 -12.585199 7.006644 -2.871962 0.007033 1.101400 -1.195600 0.702700 -7.425038 -7.559989 1.860761 -61.596913 8.792437 71.283086 35.504665 -42.519651 -15.675117 -1.282526 -1.682278 -22.241143 32.041384 20.098349 13.482900 -7.125000 0.000000 0.000000 5.660400 54.626800 1.341900 10.526806 7.439979 1.696395 56.321666 2.525734 44.348244 -33.627661 41.008760 -14.126095 0.363880 -0.196700 -10.651463 -22.116499 4.078783 -1.794100 7.125000 0.000000 0.000000 3.167100 -25.274200 1.513900 
-31.119198 16.576702 -4.829315 172.986383 56.926984 -173.087984 3.435962 0.777186 -1.110898 -31.957583 -8.464736 -20.841867 3.056148 13.281142 37.552118 1.129792 2.452664 -21.416358 0.558600 -4.787400 -13.303100 -7.234839 -1.161333 -0.346895 13.824321 17.115772 -36.092008 -13.484195 -20.406085 70.592788 -1.295953 1.388203 -19.321546 -0.178700 2.723300 -7.509200 1.460340 -3.648058 14.442314 2.003488 -3.736977 -1.691018 5.517910 -2.158361 0.711919 -0.095503 -1.972187 -12.773154 6.999443 -2.698495 -0.117880 1.038700 -1.116400 0.670900 -7.368529 -7.700933 1.831145 -63.616578 6.077985 70.342132 34.599087 -41.692745 -14.910306 -1.336581 -1.605676 -22.195750 31.912093 20.196107 13.421600 -7.125000 0.000000 0.000000 5.539900 54.588500 1.308000 10.522625 7.532299 1.687264 57.167990 1.050062 42.342093 -31.758743 39.779746 -12.996752 0.420442 -0.217479 -10.822128 -22.438630 4.063529 -1.834900 7.125000 0.000000 0.000000 2.886300 -25.241900 1.381500 
-30.919213 16.552029 -4.921135 172.211815 56.331788 -173.687945 3.403760 0.827943 -1.107695 -32.433075 -8.378962 -19.698164 2.961234 13.105555 37.102227 1.207753 2.193028 -21.685441 0.538600 -4.702300 -13.061500 -7.172112 -1.155936 -0.260947 12.199269 18.246676 -38.231019 -13.159100 -20.400385 69.676317 -1.395907 1.558418 -20.086489 -0.180600 2.737100 -7.547600 1.431704 -3.964865 14.446345 2.046801 -4.124124 -1.689595 5.571452 -2.377958 0.779201 -0.039514 -1.839160 -12.993121 6.997410 -2.513544 -0.242558 0.979200 -1.030400 0.644700 -7.306653 -7.832497 1.814173 -65.509797 3.269041 69.621828 33.731412 -40.856983 -14.187708 -1.386654 -1.533495 -22.027250 31.645143 20.319987 13.314300 -7.125000 0.000000 0.000000 5.259600 54.563300 1.238300 10.510712 7.617301 1.674258 58.028463 -0.354568 40.501099 -30.085918 38.620486 -12.005443 0.480157 -0.222731 -11.618301 -22.630641 4.012813 -1.845100 7.125000 0.000000 0.000000 2.701600 -25.263500 1.291500 
-30.715792 16.527044 -5.013788 171.409890 55.810683 -174.338856 3.367840 0.884016 -1.100185 -32.926043 -8.184686 -18.482370 2.845886 12.894559 36.551165 1.284463 1.942859 -21.955183 0.522500 -4.632400 -12.862900 -7.099351 -1.154824 -0.197245 10.571290 19.209363 -40.267580 -12.762007 -20.347013 68.537340 -1.473321 1.691921 -20.667109 -0.177400 2.713000 -7.480700 1.327131 -4.249486 14.450426 2.082346 -4.478917 -1.681443 5.633489 -2.584329 0.881973 0.041980 -1.698908 -13.232331 6.998869 -2.319795 -0.364742 0.917600 -0.939700 0.621600 -7.239217 -7.953051 1.810664 -67.261266 0.394264 69.128558 32.923106 -40.030966 -13.519583 -1.432606 -1.464995 -21.735612 31.253197 20.458754 13.160800 -7.125000 0.000000 0.000000 4.835000 54.541200 1.135400 10.490111 7.693923 1.656256 58.915853 -1.712513 38.882563 -28.625966 37.565267 -11.155458 0.545913 -0.210064 -13.102965 -22.750911 3.881064 -1.810500 7.125000 0.000000 0.000000 2.566700 -25.385900 1.219700 
-30.509248 16.500393 -5.107483 170.588823 55.370859 -175.028267 3.328800 0.944863 -1.089542 -33.421642 -7.856106 -17.220898 2.712748 12.651407 35.907598 1.366227 1.658805 -22.218142 0.510800 -4.581200 -12.717700 -7.018968 -1.157433 -0.152278 8.974811 19.995193 -42.222212 -12.303333 -20.247650 67.203537 -1.525133 1.778763 -21.059464 -0.172400 2.675000 -7.375100 1.151054 -4.499665 14.442338 2.110294 -4.799105 -1.667905 5.708882 -2.776875 1.022332 0.118510 -1.566076 -13.499720 7.017342 -2.132907 -0.477027 0.870300 -0.849400 0.609800 -7.168464 -8.062769 1.819788 -68.891097 -2.544882 68.851548 32.167236 -39.210612 -12.895535 -1.473169 -1.399231 -21.356557 30.709636 20.572273 12.925200 -7.125000 0.000000 0.000000 4.242700 54.470600 0.988600 10.457649 7.763113 1.632806 59.823013 -3.032137 37.499951 -27.394048 36.646435 -10.450284 0.617439 -0.177073 -15.242200 -22.837346 3.624710 -1.715100 7.125000 0.000000 0.000000 2.452400 -25.654600 1.149900 
-30.300518 16.470515 -5.202218 169.759467 55.008297 -175.741103 3.287304 1.009665 -1.075855 -33.902109 -7.387388 -15.931193 2.564753 12.378390 35.179341 1.450145 1.345387 -22.458239 0.509000 -4.573300 -12.695300 -6.933042 -1.163240 -0.122288 7.455436 20.587719 -44.100802 -11.794649 -20.103946 65.704730 -1.551458 1.845216 -21.249857 -0.170000 2.656200 -7.323000 0.924828 -4.710148 14.428590 2.130693 -5.075774 -1.652543 5.790696 -2.949432 1.175255 0.191292 -1.450272 -13.773400 7.048138 -1.966741 -0.584836 0.834500 -0.767500 0.602200 -7.092919 -8.163784 1.842591 -70.404709 -5.519596 68.799862 31.482612 -38.413453 -12.325375 -1.509128 -1.336922 -20.953103 30.062534 20.651622 12.627500 -7.125000 0.000000 0.000000 3.541200 54.350900 0.814500 10.413901 7.826668 1.602634 60.757190 -4.337554 36.310985 -26.355696 35.853623 -9.866753 0.687168 -0.133693 -17.683855 -22.950659 3.338538 -1.606600 7.125000 0.000000 0.000000 2.317400 -25.957500 1.070100 
-30.089706 16.438035 -5.298411 168.918938 54.705861 -176.494348 3.243340 1.079057 -1.058657 -34.361885 -6.762519 -14.601846 2.402603 12.073035 34.363077 1.530619 1.012029 -22.646840 0.523800 -4.638400 -12.880000 -6.844475 -1.170862 -0.104735 6.049640 20.988216 -45.876975 -11.248387 -19.918180 64.073668 -1.556904 1.903575 -21.270471 -0.174100 2.687900 -7.410900 0.653811 -4.887645 14.429030 2.146353 -5.314841 -1.637059 5.893873 -3.104905 1.326730 0.240938 -1.356013 -14.050139 7.085572 -1.825239 -0.690591 0.810100 -0.696300 0.597700 -7.011793 -8.258404 1.880051 -71.823031 -8.513063 68.960328 30.878746 -37.651072 -11.812021 -1.540544 -1.278228 -20.594375 29.342242 20.675275 12.271500 -7.125000 0.000000 0.000000 2.771400 54.162600 0.624500 10.361254 7.885810 1.565776 61.709673 -5.616537 35.245161 -25.472152 35.163172 -9.378077 0.747245 -0.087166 -19.997251 -23.055395 3.031877 -1.485400 7.125000 0.000000 0.000000 2.193900 -26.285200 0.996200 
-29.876604 16.403264 -5.396686 168.052779 54.454603 -177.303519 3.197754 1.153193 -1.038504 -34.806128 -5.989556 -13.217561 2.226760 11.733302 33.454055 1.613079 0.611637 -22.768892 0.539700 -4.707200 -13.075200 -6.755346 -1.179685 -0.096994 4.774391 21.199039 -47.542735 -10.683594 -19.697303 62.363923 -1.540517 1.994836 -21.074394 -0.177800 2.716200 -7.489500 0.343149 -5.034322 14.442468 2.158624 -5.518156 -1.621943 6.027483 -3.244397 1.477458 0.243652 -1.286732 -14.334725 7.123358 -1.710037 -0.792283 0.798900 -0.636500 0.598500 -6.925813 -8.346471 1.934282 -73.156058 -11.515829 69.344731 30.378067 -36.948375 -11.370129 -1.570723 -1.225612 -20.353032 28.653040 20.679914 11.928100 -7.125000 0.000000 0.000000 2.046900 53.965700 0.451300 10.302193 7.940140 1.522263 62.667021 -6.840401 34.244765 -24.675511 34.523735 -8.945846 0.794913 -0.058108 -21.736322 -23.269898 2.888340 -1.445200 7.125000 0.000000 0.000000 1.996900 -26.422000 0.900200 
-29.661003 16.366515 -5.498188 167.161451 54.248069 -178.166430 3.150921 1.231451 -1.016127 -35.234300 -5.069984 -11.774650 2.037261 11.356427 32.445434 1.696551 0.138264 -22.812737 0.553100 -4.764100 -13.237100 -6.668153 -1.189512 -0.095765 3.648272 21.226941 -49.095466 -10.128457 -19.455665 60.660710 -1.481164 2.067082 -20.509178 -0.174600 2.691900 -7.422100 0.010816 -5.160262 14.457185 2.170370 -5.697670 -1.608038 6.189693 -3.373431 1.628215 0.209459 -1.225951 -14.618267 7.137599 -1.601517 -0.891531 0.783300 -0.581900 0.598900 -6.833936 -8.426122 2.008495 -74.399260 -14.496950 69.945673 30.015780 -36.343696 -11.021425 -1.600975 -1.176470 -20.280094 28.103807 20.647767 11.634400 -7.125000 0.000000 0.000000 1.488400 53.756300 0.320500 10.243721 7.986849 1.473104 63.602104 -7.964681 33.291203 -23.897732 33.875502 -8.527665 0.827584 -0.052165 -22.604482 -23.510469 2.902349 -1.478400 7.125000 0.000000 0.000000 1.793200 -26.378300 0.810200 
